<svg width="230" height="138" viewBox="0 0 230 138" fill="none" xmlns="http://www.w3.org/2000/svg">
<g clip-path="url(#clip0_2_131)">
<g clip-path="url(#clip1_2_131)">
<path d="M230 -0.00390625H0V137.844H230V-0.00390625Z" fill="#1B0750"/>
<path d="M59.6166 115.103V105.835L55.0021 113.559H54.1614L49.5664 105.894V115.103H47.8262V102.394H49.3122L54.6111 111.33L59.8512 102.394H61.3372V115.103H59.6166Z" fill="white"/>
<path d="M73.284 111.916H66.5187L65.1109 115.103H63.2339L69.0019 102.394H70.8008L76.5884 115.103H74.6723L73.2645 111.916H73.284ZM72.6583 110.469L69.9209 104.232L67.1835 110.469H72.6779H72.6583Z" fill="white"/>
<path d="M86.9906 115.103L84.2532 111.193C83.999 111.193 83.7252 111.232 83.4515 111.232H80.3035V115.103H78.4851V102.394H83.4515C86.7559 102.394 88.7503 104.056 88.7503 106.833C88.7503 108.788 87.7336 110.215 85.9543 110.841L88.9654 115.103H86.9906ZM86.9515 106.813C86.9515 104.995 85.7392 103.958 83.4124 103.958H80.323V109.687H83.4124C85.7392 109.687 86.9515 108.631 86.9515 106.813Z" fill="white"/>
<path d="M95.848 109.453L93.5212 111.819V115.103H91.7028V102.394H93.5212V109.492L100.423 102.394H102.496L97.0603 108.123L102.828 115.123H100.697L95.8284 109.472L95.848 109.453Z" fill="white"/>
<path d="M114.013 113.52V115.103H104.784V102.394H113.758V103.978H106.602V107.888H112.976V109.433H106.602V113.539H114.013V113.52Z" fill="white"/>
<path d="M119.507 103.958H115.147V102.375H125.666V103.958H121.306V115.103H119.507V103.958Z" fill="white"/>
<path d="M137.945 106.813C137.945 109.57 135.951 111.251 132.646 111.251H129.498V115.103H127.68V102.394H132.646C135.951 102.394 137.945 104.056 137.945 106.833V106.813ZM136.127 106.813C136.127 104.995 134.915 103.958 132.588 103.958H129.498V109.668H132.588C134.915 109.668 136.127 108.631 136.127 106.813Z" fill="white"/>
<path d="M140.644 102.394H142.462V113.539H149.345V115.123H140.644V102.414V102.394Z" fill="white"/>
<path d="M159.59 111.916H152.825L151.417 115.103H149.54L155.308 102.394H157.107L162.895 115.103H160.979L159.571 111.916H159.59ZM158.945 110.469L156.208 104.232L153.47 110.469H158.965H158.945Z" fill="white"/>
<path d="M163.599 108.749C163.599 104.995 166.473 102.238 170.344 102.238C172.3 102.238 174.02 102.903 175.174 104.213L174.001 105.366C173.023 104.33 171.811 103.861 170.423 103.861C167.548 103.861 165.437 105.933 165.437 108.749C165.437 111.564 167.568 113.637 170.423 113.637C171.83 113.637 173.023 113.148 174.001 112.112L175.174 113.246C174.02 114.556 172.3 115.24 170.325 115.24C166.473 115.24 163.599 112.503 163.599 108.729V108.749Z" fill="white"/>
<path d="M187.003 113.52V115.103H177.774V102.394H186.749V103.978H179.593V107.888H185.967V109.433H179.593V113.539H187.003V113.52Z" fill="white"/>
<path d="M91.1358 67.825C91.1944 71.6769 90.2364 75.4701 88.3397 78.8332C86.5213 82.0203 83.8817 84.66 80.7141 86.4979C77.3706 88.3945 73.5969 89.3722 69.745 89.3135C65.9713 89.3722 62.2562 88.4141 58.9714 86.537C57.7004 85.8136 56.5077 84.9337 55.4128 83.956C56.5077 83.5063 57.6222 83.0175 58.7563 82.5091C59.5579 82.1376 60.3401 81.7466 61.1222 81.3555C61.3568 81.5119 61.5914 81.6684 61.8456 81.8248C64.2311 83.2521 66.9685 83.9756 69.745 83.9365C72.541 83.9756 75.298 83.2521 77.7225 81.8248C80.0493 80.4365 81.9655 78.4617 83.2755 76.0958C84.6638 73.5735 85.3481 70.7383 85.309 67.8641C85.309 66.7104 85.2113 65.5568 84.9962 64.4423C86.2671 63.23 87.499 61.9787 88.7112 60.6882C89.0436 60.3362 89.3565 59.9843 89.6693 59.6323C90.6665 62.272 91.1749 65.068 91.1358 67.8836V67.825Z" fill="#73C9B7"/>
<path d="M86.2476 53.7275C85.0939 55.3308 83.823 56.8755 82.4934 58.342C81.2616 56.5236 79.6191 54.9984 77.7225 53.8839C75.298 52.4761 72.541 51.7722 69.745 51.8113C66.9685 51.7722 64.2506 52.4957 61.8456 53.8839C59.5188 55.2526 57.6027 57.2275 56.3317 59.6129C54.9826 62.1352 54.2982 64.9508 54.3373 67.8055C54.2787 70.6798 54.963 73.515 56.3317 76.0373C56.449 76.2328 56.5664 76.4283 56.6837 76.6239C54.8848 77.3669 53.0468 78.0121 51.1893 78.54C49.4296 75.3334 48.5106 71.7552 48.5301 68.0988V31.7697C48.491 30.968 48.7843 30.1663 49.3318 29.5798C49.9184 29.0127 50.7005 28.739 51.5217 28.7781C52.3038 28.739 53.0664 29.0323 53.6334 29.5798C54.1809 30.1663 54.4742 30.968 54.4351 31.7697V54.3923C56.1753 51.9482 58.463 49.9538 61.1417 48.5851C64.016 47.0991 67.2226 46.3561 70.4489 46.3952C74.1639 46.3365 77.8203 47.3142 81.027 49.2108C83.0018 50.4035 84.7811 51.9091 86.2476 53.7079V53.7275Z" fill="white"/>
<path d="M98.4485 53.5123C97.7446 53.5318 97.0407 53.2776 96.5323 52.7888C96.024 52.3195 95.7502 51.6743 95.7698 50.9704C95.7698 50.2665 96.024 49.5821 96.5323 49.0933C97.0407 48.6045 97.7446 48.3503 98.4485 48.3699H118.001C118.705 48.3503 119.409 48.6045 119.918 49.0933C120.426 49.5821 120.7 50.2665 120.68 50.9704C120.68 51.6547 120.406 52.3195 119.918 52.7888C119.409 53.2776 118.705 53.5514 118.001 53.5123H98.4485ZM117.532 88.9224C114.99 88.9615 112.468 88.2968 110.278 87.0063C108.166 85.7353 106.426 83.9169 105.253 81.727C104.002 79.3807 103.356 76.741 103.415 74.0623V36.4231C103.415 35.6214 103.669 34.8589 104.217 34.2723C104.764 33.7052 105.527 33.3924 106.328 33.4315C107.13 33.4119 107.912 33.7052 108.479 34.2723C109.046 34.8393 109.359 35.6214 109.32 36.4231V74.0623C109.222 76.4282 110.043 78.7159 111.627 80.4952C113.133 82.1572 115.284 83.0761 117.532 82.9979H119.605C120.367 82.9979 121.091 83.2912 121.599 83.8387C122.127 84.4253 122.401 85.2074 122.362 85.9895C122.362 86.7912 122.049 87.5733 121.443 88.1012C120.797 88.6487 119.976 88.942 119.135 88.9029H117.532V88.9224Z" fill="white"/>
<path d="M134.172 38.8088C133.077 38.8088 132.021 38.3786 131.258 37.5769C130.457 36.7948 130.007 35.6999 130.026 34.5658C129.968 33.4122 130.437 32.2977 131.297 31.5351C132.099 30.8116 133.155 30.401 134.25 30.4206C135.306 30.4206 136.342 30.8116 137.124 31.5351C137.984 32.3172 138.434 33.4317 138.395 34.5658C138.415 35.6999 137.965 36.7753 137.163 37.5769C136.381 38.3786 135.306 38.8283 134.172 38.8088ZM134.25 88.9227C133.448 88.9618 132.646 88.6685 132.06 88.121C131.512 87.5344 131.219 86.7328 131.258 85.9311V49.8366C131.219 49.0349 131.512 48.2332 132.06 47.6466C132.646 47.0796 133.429 46.7863 134.25 46.845C135.032 46.8059 135.794 47.0992 136.361 47.6466C136.909 48.2332 137.202 49.0349 137.163 49.8366V85.9311C137.202 86.7328 136.909 87.5344 136.361 88.121C135.794 88.6685 135.032 88.9618 134.25 88.9422V88.9227Z" fill="white"/>
<path d="M164.909 89.2943C161.858 89.2943 158.828 88.7663 155.934 87.7496C153.177 86.8502 150.694 85.2664 148.719 83.1351C148.171 82.5876 147.917 81.8251 148.034 81.0625C148.152 80.2804 148.562 79.5569 149.188 79.0681C149.814 78.5793 150.615 78.3642 151.417 78.462C152.16 78.5598 152.844 78.9117 153.333 79.4592C154.643 80.9648 156.325 82.0988 158.202 82.7636C160.353 83.5653 162.621 83.9563 164.909 83.9172C168.682 83.9172 171.42 83.272 173.121 81.9619C174.685 80.8865 175.643 79.1268 175.721 77.2302C175.721 75.3531 174.724 73.6129 173.121 72.6548C171.381 71.4425 168.526 70.504 164.537 69.8392C159.375 69.018 155.582 67.5906 153.196 65.5376C150.928 63.7778 149.618 61.0795 149.599 58.2248C149.521 55.8785 150.244 53.5517 151.671 51.6746C153.118 49.8757 155.034 48.5266 157.185 47.7445C159.61 46.8451 162.191 46.4149 164.772 46.4344C167.822 46.3562 170.853 46.9624 173.629 48.2138C175.995 49.3087 178.048 50.9316 179.651 52.9846C180.14 53.5712 180.355 54.3142 180.258 55.0572C180.14 55.8003 179.691 56.4455 179.026 56.8366C178.38 57.2081 177.637 57.3254 176.914 57.1885C176.132 57.0712 175.408 56.6606 174.881 56.074C173.688 54.6466 172.163 53.5126 170.442 52.7891C168.585 52.0657 166.61 51.7137 164.615 51.7528C162.249 51.6355 159.884 52.2416 157.87 53.493C156.325 54.3925 155.367 56.0544 155.347 57.8337C155.328 58.9287 155.66 60.0237 156.305 60.9035C157.185 61.9594 158.319 62.7415 159.61 63.2108C161.721 64.032 163.931 64.599 166.16 64.9119C169.308 65.3225 172.378 66.2415 175.252 67.6493C177.188 68.6074 178.83 70.0543 180.003 71.8727C180.942 73.476 181.431 75.2944 181.431 77.1519C181.47 79.4396 180.727 81.6882 179.319 83.5066C177.794 85.4228 175.78 86.8893 173.492 87.7691C170.774 88.8445 167.861 89.3725 164.948 89.3138H164.909V89.2943Z" fill="white"/>
</g>
</g>
<defs>
<clipPath id="clip0_2_131">
<rect width="230" height="137.84" fill="white"/>
</clipPath>
<clipPath id="clip1_2_131">
<rect width="230" height="137.847" fill="white" transform="translate(0 -0.00390625)"/>
</clipPath>
</defs>
</svg>
